<svg xmlns="http://www.w3.org/2000/svg" viewBox="0 0 208.72 53.76">
	<defs>
		<style>
			.cls-1{fill:#e40084;}.cls-2{fill:#fff;}
		</style>
	</defs>
	<title>
		hot-or-cold-logo
	</title>
	<g id="Layer_2" data-name="Layer 2">
		<g id="Layer_1-2" data-name="Layer 1">
			<ellipse class="cls-1" cx="91.25" cy="26.88" rx="29.76" ry="26.88" />
			<path class="cls-2" d="M7,23.57l1.33,0c1.15,0,2,.08,2.41.08,1.88,0,3.3,0,4.29,0,1.17,0,2.07,0,2.7,0V22.52l0-2q0-1.37.15-5.61l.07-2.52a.34.34,0,0,1,.39-.33l.4,0a2.94,2.94,0,0,0,.54,0,1.76,1.76,0,0,1,.61.07q.36.11.36.36l-.07.29c0,.16-.06.48-.11.95S19.93,15,19.84,16q-.12,1.08-.18,4.92t-.08,6c0,1,0,2.76-.14,5.26l-.07,2.37,0,1.44a9,9,0,0,0,.07,1l0,.21c0,.15-.05.22-.16.24h-.2a7.29,7.29,0,0,1-1.3.08c-.19,0-.28-.12-.28-.36l0-5.26c0-.38,0-.79,0-1.21s0-.79,0-1.13V25.4l-2.91.08c-1,0-2.43,0-4.18,0H7.06c-.92,0-1.62,0-2.13,0,0,.4,0,.72,0,.93-.05.77-.08,1.5-.08,2.2l0,3.89A24,24,0,0,0,5,36.24a4.2,4.2,0,0,1,.07.54q0,.51-.27.63a1.25,1.25,0,0,1-.58.11l-.41,0a17.19,17.19,0,0,0-2.88.11c-.41,0-.65,0-.74-.29a3.09,3.09,0,0,1-.11-1c0-.43,0-.75,0-1L0,22.88l.07-9.32a1.74,1.74,0,0,1,.16-.92.66.66,0,0,1,.53-.2l.79,0c.12,0,.39,0,.83-.07a2.91,2.91,0,0,1,.61,0l.93,0c.2,0,.46,0,.8,0s.42.08.48.24a1,1,0,0,1,.07.48c0,.17,0,.29,0,.36q0,1.67-.15,4.29L5,21.37,4.86,23.5Z" />
			<path class="cls-2" d="M41.45,16.44a18.77,18.77,0,0,1,1.84,4.77,17.65,17.65,0,0,1,.52,3.65,22.7,22.7,0,0,1-.7,5.19,12.37,12.37,0,0,1-3,5.49q-2.3,2.53-6.66,2.54-6,0-8.49-6.95a23,23,0,0,1-1.26-7,14.1,14.1,0,0,1,1.33-6,12.6,12.6,0,0,1,3.51-4.59A7.15,7.15,0,0,1,33,11.8c1.39,0,2.43,0,3.12.1a4.23,4.23,0,0,1,1.85.65A10.56,10.56,0,0,1,41.45,16.44ZM39,32.87a15.57,15.57,0,0,0,1.87-8,16.27,16.27,0,0,0-.88-5.45,9.82,9.82,0,0,0-2.48-4,5.28,5.28,0,0,0-3.69-1.49h-1a3.35,3.35,0,0,0-1.35.25,3.13,3.13,0,0,0-1,.76c-.79.79-1.46,1.52-2,2.18A11.94,11.94,0,0,0,26.8,20a11.66,11.66,0,0,0-.81,4.5,20.66,20.66,0,0,0,.74,5.63,9.61,9.61,0,0,0,2.36,4.25,5.62,5.62,0,0,0,4.17,1.64A6.16,6.16,0,0,0,39,32.87Z" />
			<path class="cls-2" d="M65,12a1,1,0,0,1,.07.49c0,.2,0,.35,0,.45a.73.73,0,0,1-.18.65,1,1,0,0,1-.68.18l-1.1,0c-.54,0-1.19,0-2,0H61l-.07,6.52,0,6.33c0,1,0,2.18.16,3.66s.17,2.4.19,2.79c.15,1.92.22,3,.22,3.24,0,.48-.08.79-.32.93a2.55,2.55,0,0,1-1.26.22l-1.59,0-5.9-.1-2.23,0q-.36,0-.36-.72c0-.17,0-.49.07-1,0-.63.07-1.11.07-1.44,0-.63-.07-1.72-.07-3.28q0-3.14.09-6.69c.06-2.38.14-4.17.23-5.37,0-.62.07-1.46.07-2.52a25.21,25.21,0,0,0-.1-2.66l-.65,0-3,.07c-.19,0-.29-.19-.29-.57l0-.79a.55.55,0,0,1,.09-.38.41.41,0,0,1,.3-.09l.37,0a2.47,2.47,0,0,0,.5,0l7.67,0,6.26-.07q1.47,0,3,0C64.76,11.82,64.94,11.89,65,12Z" />
			<path class="cls-2" d="M92.09,14.05a10,10,0,0,1,2.3,4.89,36.35,36.35,0,0,1,.5,6.39A21.41,21.41,0,0,1,94,31.25a13.31,13.31,0,0,1-2.66,5.13,5.61,5.61,0,0,1-4.43,2.09c-3.43,0-5.71-1.44-6.84-4.34a25.31,25.31,0,0,1-1.69-9.3,18.66,18.66,0,0,1,1.31-7.67,8.83,8.83,0,0,1,3.2-4A7.18,7.18,0,0,1,86.69,12,6.77,6.77,0,0,1,92.09,14.05Zm-4,14.2a6.55,6.55,0,0,0,.47-2.59,6.52,6.52,0,0,0-.45-2.52c-.3-.72-.7-1.08-1.21-1.08s-1.05.41-1.35,1.24A7.81,7.81,0,0,0,85.1,26a8.43,8.43,0,0,0,.29,2.41,1.2,1.2,0,0,0,1.26.94A1.53,1.53,0,0,0,88.09,28.25Z" />
			<path class="cls-2" d="M115.31,37.72q0,.14-.18.18l-.31,0h-.2l-4.07.11a.51.51,0,0,1-.45-.25q-.15-.26-.45-.9a10.67,10.67,0,0,0-.64-1.44q-.72-1.31-2.49-4.86L104.69,27l.1,1.91.18,2.74c.15,3.21.27,5,.36,5.33a1.19,1.19,0,0,1,0,.36c0,.43-.23.64-.68.64a1.73,1.73,0,0,1-.36,0,17.87,17.87,0,0,0-2.81.14c-1,.1-1.62.15-1.84.15a.85.85,0,0,1-.63-.18.92.92,0,0,1-.16-.62l0-.82-.08-2.09q-.21-3.75-.21-6.52a11,11,0,0,1,.11-2A39,39,0,0,0,98.93,21c0-2.91-.05-5.1-.15-6.59,0-.19,0-.46,0-.79a2.36,2.36,0,0,1,.1-.83c.08-.17.15-.26.24-.27l.45,0,.79-.07a37,37,0,0,1,4-.29q4,0,6.07,2.07a7.36,7.36,0,0,1,2,5.38,8.64,8.64,0,0,1-1.69,5A9.88,9.88,0,0,1,109,26.48l2.52,4.58q2.77,5,3.24,5.61A2.81,2.81,0,0,1,115.31,37.72ZM105.44,22a1.89,1.89,0,0,0,1-1.91,3,3,0,0,0-.32-1.55,1,1,0,0,0-.83-.5,1,1,0,0,0-.69.29,1.7,1.7,0,0,0,0,.5c0,.31,0,.63,0,.94a2.66,2.66,0,0,1,0,.57,5.86,5.86,0,0,0-.14,1.26l0,.33,0,.29A2.2,2.2,0,0,0,105.44,22Z" />
			<path class="cls-2" d="M141.91,12.82A8.35,8.35,0,0,1,144,14.77l.73,1.09a1.46,1.46,0,0,1,.36.72.45.45,0,0,1-.14.36,1.66,1.66,0,0,1-.36.26,1.23,1.23,0,0,0-.29.18,12.4,12.4,0,0,0-1.15.9l-.95.73a6.57,6.57,0,0,1-.85.6.5.5,0,0,1-.29.11.62.62,0,0,1-.47-.29c-.14-.19-.24-.33-.28-.4l-.38-.47a2.68,2.68,0,0,0-.78-.61,2.13,2.13,0,0,0-1-.25c-.72,0-1.28.47-1.69,1.4a14,14,0,0,0-.61,5,16,16,0,0,0,.39,3.89,5.68,5.68,0,0,0,1,2.17,1.47,1.47,0,0,0,1.06.67,1.7,1.7,0,0,0,1.1-.32,2.76,2.76,0,0,0,.66-1.23c.19-.57.51-.86.94-.86a1.79,1.79,0,0,1,.48.07l.42.11c.24.09.83.24,1.76.45s1.74.36,2.41.48c.34.08.51.36.51.87a2.46,2.46,0,0,1,0,.54,5.65,5.65,0,0,1-.29,1.26,10.67,10.67,0,0,1-2.57,4.16,7.29,7.29,0,0,1-5.42,1.85,8.59,8.59,0,0,1-4.43-1.33A10.42,10.42,0,0,1,130,32.44a18.49,18.49,0,0,1-1.54-8.19q0-7.2,2.77-9.84a8.78,8.78,0,0,1,6.23-2.65A7.75,7.75,0,0,1,141.91,12.82Z" />
			<path class="cls-2" d="M166.8,16.44a18.77,18.77,0,0,1,1.84,4.77,17.65,17.65,0,0,1,.52,3.65,22.7,22.7,0,0,1-.7,5.19,12.37,12.37,0,0,1-3,5.49q-2.3,2.53-6.66,2.54-6,0-8.49-6.95a23,23,0,0,1-1.26-7,14.1,14.1,0,0,1,1.33-6,12.6,12.6,0,0,1,3.51-4.59,7.15,7.15,0,0,1,4.48-1.72c1.39,0,2.43,0,3.12.1a4.23,4.23,0,0,1,1.85.65A10.56,10.56,0,0,1,166.8,16.44Zm-2.5,16.43a15.57,15.57,0,0,0,1.87-8,16.27,16.27,0,0,0-.88-5.45,9.82,9.82,0,0,0-2.48-4,5.28,5.28,0,0,0-3.69-1.49h-1a3.35,3.35,0,0,0-1.35.25,3.13,3.13,0,0,0-1,.76c-.79.79-1.46,1.52-2,2.18A11.94,11.94,0,0,0,152.15,20a11.66,11.66,0,0,0-.81,4.5,20.66,20.66,0,0,0,.74,5.63,9.61,9.61,0,0,0,2.36,4.25,5.62,5.62,0,0,0,4.17,1.64A6.16,6.16,0,0,0,164.3,32.87Z" />
			<path class="cls-2" d="M179.67,16.22c-.09,2-.14,3.45-.14,4.43l.07,5.44c0,.86,0,1.75,0,2.66l-.08,3.93,0,.72,0,1,.08,1.26,5.14.18,4.29,0h.07c.14,0,.23,0,.25.07a.32.32,0,0,1,0,.2,1.91,1.91,0,0,0,0,.2,1.72,1.72,0,0,0,0,.54,4.67,4.67,0,0,1,.05.72.3.3,0,0,1-.18.32,1,1,0,0,1-.45.06,3.42,3.42,0,0,0-.41,0l-1.91-.11c-1.68-.14-2.87-.22-3.56-.22s-2.71.08-5.83.22l-3.28.11c-.53,0-.79-.24-.79-.72V34.44l.14-12.06c0-.91-.06-2.57-.18-5L172.87,13c0-.4.15-.61.47-.61a3.16,3.16,0,0,1,.61.11,3.11,3.11,0,0,0,.68.11,18.42,18.42,0,0,0,2.41.14,13.48,13.48,0,0,0,1.84-.11,1.2,1.2,0,0,1,.76.08.51.51,0,0,1,.21.46,3.27,3.27,0,0,1,0,.53,2.68,2.68,0,0,0-.06.59Z" />
			<path class="cls-2" d="M208,20a21.93,21.93,0,0,1,.68,5.67,14.26,14.26,0,0,1-.54,3.64,16.41,16.41,0,0,1-1.49,3.74,7.08,7.08,0,0,1-2.21,2.56,11.62,11.62,0,0,1-4.29,1.56,24.68,24.68,0,0,1-4,.45h-3.67c-.27,0-.43-.06-.51-.18a.39.39,0,0,1,0-.39.78.78,0,0,0,0-.29c0-.1,0-.22,0-.38s0-.38,0-.66q0-1.2,0-2.34l-.07-6.52,0-7.24c0-.62,0-1.23,0-1.81s0-1.1-.08-1.53L191.73,14a8.11,8.11,0,0,1,.11-1.15c0-.22.14-.33.29-.33h.11a1,1,0,0,1,.32.06,1.39,1.39,0,0,0,.32.05,6.58,6.58,0,0,0,.71,0q.41,0,.84,0l1.41,0a33.11,33.11,0,0,1,3.63.18l1,.08a5.74,5.74,0,0,1,2.08.75,14.88,14.88,0,0,1,2.72,1.95A8.86,8.86,0,0,1,208,20Zm-5.58,15.36A8,8,0,0,0,205.74,32,13.17,13.17,0,0,0,207,25.69a13.38,13.38,0,0,0-1.28-6.35,9,9,0,0,0-3.22-3.58,8.81,8.81,0,0,0-4.5-1.23l-.14,3.28c-.07,1.17-.11,2.79-.11,4.86,0,.19,0,1.26.11,3.2.07.82.11,1.59.11,2.31l0,4.64c0,.72,0,1.87,0,3.46A8.84,8.84,0,0,0,202.46,35.38Z" />
		</g>
	</g>
</svg>
